<svg width="50" height="50" viewBox="0 0 50 50" fill="none" xmlns="http://www.w3.org/2000/svg"><g clip-path="url(#clip0_381_1614)"><path d="M0 25C0 38.7695 11.2305 50 25 50C38.7695 50 50 38.7695 50 25C50 11.2305 38.7695 0 25 0C11.2305 0 0 11.2305 0 25ZM47.619 25C47.619 37.4597 37.4597 47.619 25 47.619C12.5403 47.619 2.38095 37.4597 2.38095 25C2.38095 12.5403 12.5403 2.38095 25 2.38095C37.4597 2.38095 47.619 12.5403 47.619 25Z" fill="#444B54"/><path d="M30.9524 25.0001C30.9524 24.6823 30.833 24.4048 30.5958 24.1661L22.6593 16.2296C22.1819 15.7537 21.4286 15.7537 20.9914 16.2296C20.5156 16.707 20.5156 17.4604 20.9914 17.8975L28.0955 25.0001L20.9914 32.1026C20.5156 32.5801 20.5156 33.3334 20.9914 33.7705C21.4689 34.2464 22.2222 34.2464 22.6593 33.7705L30.5958 25.834C30.833 25.5953 30.9524 25.3178 30.9524 25.0001Z" fill="#3EBDB9"/></g><defs><clipPath id="clip0_381_1614"><rect width="50" height="50" fill="white" transform="translate(0 50) rotate(-90)"/></clipPath></defs></svg>
