<svg width="50" height="50" viewBox="0 0 50 50" fill="none" xmlns="http://www.w3.org/2000/svg"><g clip-path="url(#clip0_382_1618)"><path d="M50 25C50 11.2305 38.7695 0 25 0C11.2305 0 0 11.2305 0 25C0 38.7695 11.2305 50 25 50C38.7695 50 50 38.7695 50 25ZM2.38095 25C2.38095 12.5403 12.5403 2.38095 25 2.38095C37.4597 2.38095 47.619 12.5403 47.619 25C47.619 37.4597 37.4597 47.619 25 47.619C12.5403 47.619 2.38095 37.4597 2.38095 25Z" fill="#444B54"/><path d="M19.0476 24.9999C19.0476 25.3177 19.167 25.5952 19.4042 25.8339L27.3407 33.7704C27.8181 34.2463 28.5714 34.2463 29.0086 33.7704C29.4844 33.293 29.4844 32.5396 29.0086 32.1025L21.9045 24.9999L29.0086 17.8974C29.4844 17.4199 29.4844 16.6666 29.0086 16.2295C28.5311 15.7536 27.7778 15.7536 27.3407 16.2295L19.4042 24.166C19.167 24.4047 19.0476 24.6822 19.0476 24.9999Z" fill="#3EBDB9"/></g><defs><clipPath id="clip0_382_1618"><rect width="50" height="50" fill="white" transform="translate(50) rotate(90)"/></clipPath></defs></svg>