<svg width="93" height="113" viewBox="0 0 93 113" fill="none" xmlns="http://www.w3.org/2000/svg">
<mask id="mask0_765_549" style="mask-type:alpha" maskUnits="userSpaceOnUse" x="0" y="0" width="93" height="113">
<circle cx="1.5" cy="21.5" r="1.5" fill="#E2F5F5"/>
<circle cx="51.5" cy="21.5" r="1.5" fill="#E2F5F5"/>
<circle cx="1.5" cy="31.5" r="1.5" fill="#E2F5F5"/>
<circle cx="51.5" cy="31.5" r="1.5" fill="#E2F5F5"/>
<circle cx="1.5" cy="41.5" r="1.5" fill="#E2F5F5"/>
<circle cx="51.5" cy="41.5" r="1.5" fill="#E2F5F5"/>
<circle cx="1.5" cy="51.5" r="1.5" fill="#E2F5F5"/>
<circle cx="51.5" cy="51.5" r="1.5" fill="#E2F5F5"/>
<circle cx="1.5" cy="61.5" r="1.5" fill="#E2F5F5"/>
<circle cx="51.5" cy="61.5" r="1.5" fill="#E2F5F5"/>
<circle cx="1.5" cy="71.5" r="1.5" fill="#E2F5F5"/>
<circle cx="51.5" cy="71.5" r="1.5" fill="#E2F5F5"/>
<circle cx="1.5" cy="81.5" r="1.5" fill="#E2F5F5"/>
<circle cx="51.5" cy="81.5" r="1.5" fill="#E2F5F5"/>
<circle cx="1.5" cy="91.5" r="1.5" fill="#E2F5F5"/>
<circle cx="51.5" cy="91.5" r="1.5" fill="#E2F5F5"/>
<circle cx="1.5" cy="1.5" r="1.5" fill="#E2F5F5"/>
<circle cx="1.5" cy="101.5" r="1.5" fill="#E2F5F5"/>
<circle cx="51.5" cy="1.5" r="1.5" fill="#E2F5F5"/>
<circle cx="51.5" cy="101.5" r="1.5" fill="#E2F5F5"/>
<circle cx="1.5" cy="11.5" r="1.5" fill="#E2F5F5"/>
<circle cx="1.5" cy="111.5" r="1.5" fill="#E2F5F5"/>
<circle cx="51.5" cy="11.5" r="1.5" fill="#E2F5F5"/>
<circle cx="51.5" cy="111.5" r="1.5" fill="#E2F5F5"/>
<circle cx="11.5" cy="21.5" r="1.5" fill="#E2F5F5"/>
<circle cx="61.5" cy="21.5" r="1.5" fill="#E2F5F5"/>
<circle cx="11.5" cy="31.5" r="1.5" fill="#E2F5F5"/>
<circle cx="61.5" cy="31.5" r="1.5" fill="#E2F5F5"/>
<circle cx="11.5" cy="41.5" r="1.5" fill="#E2F5F5"/>
<circle cx="61.5" cy="41.5" r="1.5" fill="#E2F5F5"/>
<circle cx="11.5" cy="51.5" r="1.5" fill="#E2F5F5"/>
<circle cx="61.5" cy="51.5" r="1.5" fill="#E2F5F5"/>
<circle cx="11.5" cy="61.5" r="1.5" fill="#E2F5F5"/>
<circle cx="61.5" cy="61.5" r="1.5" fill="#E2F5F5"/>
<circle cx="11.5" cy="71.5" r="1.5" fill="#E2F5F5"/>
<circle cx="61.5" cy="71.5" r="1.5" fill="#E2F5F5"/>
<circle cx="11.5" cy="81.5" r="1.5" fill="#E2F5F5"/>
<circle cx="61.5" cy="81.5" r="1.5" fill="#E2F5F5"/>
<circle cx="11.5" cy="91.5" r="1.5" fill="#E2F5F5"/>
<circle cx="61.5" cy="91.5" r="1.5" fill="#E2F5F5"/>
<circle cx="11.5" cy="1.5" r="1.5" fill="#E2F5F5"/>
<circle cx="11.5" cy="101.5" r="1.5" fill="#E2F5F5"/>
<circle cx="61.5" cy="1.5" r="1.5" fill="#E2F5F5"/>
<circle cx="61.5" cy="101.5" r="1.5" fill="#E2F5F5"/>
<circle cx="11.5" cy="11.5" r="1.5" fill="#E2F5F5"/>
<circle cx="11.5" cy="111.5" r="1.5" fill="#E2F5F5"/>
<circle cx="61.5" cy="11.5" r="1.5" fill="#E2F5F5"/>
<circle cx="61.5" cy="111.5" r="1.5" fill="#E2F5F5"/>
<circle cx="21.5" cy="21.5" r="1.5" fill="#E2F5F5"/>
<circle cx="71.5" cy="21.5" r="1.5" fill="#E2F5F5"/>
<circle cx="21.5" cy="31.5" r="1.5" fill="#E2F5F5"/>
<circle cx="71.5" cy="31.5" r="1.5" fill="#E2F5F5"/>
<circle cx="21.5" cy="41.5" r="1.5" fill="#E2F5F5"/>
<circle cx="71.5" cy="41.5" r="1.5" fill="#E2F5F5"/>
<circle cx="21.5" cy="51.5" r="1.5" fill="#E2F5F5"/>
<circle cx="71.5" cy="51.5" r="1.5" fill="#E2F5F5"/>
<circle cx="21.5" cy="61.5" r="1.5" fill="#E2F5F5"/>
<circle cx="71.5" cy="61.5" r="1.5" fill="#E2F5F5"/>
<circle cx="21.5" cy="71.5" r="1.5" fill="#E2F5F5"/>
<circle cx="71.5" cy="71.5" r="1.5" fill="#E2F5F5"/>
<circle cx="21.5" cy="81.5" r="1.5" fill="#E2F5F5"/>
<circle cx="71.5" cy="81.5" r="1.5" fill="#E2F5F5"/>
<circle cx="21.5" cy="91.5" r="1.5" fill="#E2F5F5"/>
<circle cx="71.5" cy="91.5" r="1.5" fill="#E2F5F5"/>
<circle cx="21.5" cy="1.5" r="1.5" fill="#E2F5F5"/>
<circle cx="21.5" cy="101.5" r="1.5" fill="#E2F5F5"/>
<circle cx="71.5" cy="1.5" r="1.5" fill="#E2F5F5"/>
<circle cx="71.5" cy="101.5" r="1.5" fill="#E2F5F5"/>
<circle cx="21.5" cy="11.5" r="1.5" fill="#E2F5F5"/>
<circle cx="21.5" cy="111.5" r="1.5" fill="#E2F5F5"/>
<circle cx="71.5" cy="11.5" r="1.5" fill="#E2F5F5"/>
<circle cx="71.5" cy="111.5" r="1.5" fill="#E2F5F5"/>
<circle cx="31.5" cy="21.5" r="1.5" fill="#E2F5F5"/>
<circle cx="81.5" cy="21.5" r="1.5" fill="#E2F5F5"/>
<circle cx="31.5" cy="31.5" r="1.5" fill="#E2F5F5"/>
<circle cx="81.5" cy="31.5" r="1.5" fill="#E2F5F5"/>
<circle cx="31.5" cy="41.5" r="1.5" fill="#E2F5F5"/>
<circle cx="81.5" cy="41.5" r="1.5" fill="#E2F5F5"/>
<circle cx="31.5" cy="51.5" r="1.5" fill="#E2F5F5"/>
<circle cx="81.5" cy="51.5" r="1.5" fill="#E2F5F5"/>
<circle cx="31.5" cy="61.5" r="1.5" fill="#E2F5F5"/>
<circle cx="81.5" cy="61.5" r="1.5" fill="#E2F5F5"/>
<circle cx="31.5" cy="71.5" r="1.5" fill="#E2F5F5"/>
<circle cx="81.5" cy="71.5" r="1.5" fill="#E2F5F5"/>
<circle cx="31.5" cy="81.5" r="1.5" fill="#E2F5F5"/>
<circle cx="81.5" cy="81.5" r="1.5" fill="#E2F5F5"/>
<circle cx="31.5" cy="91.5" r="1.5" fill="#E2F5F5"/>
<circle cx="81.5" cy="91.5" r="1.5" fill="#E2F5F5"/>
<circle cx="31.5" cy="1.5" r="1.5" fill="#E2F5F5"/>
<circle cx="31.5" cy="101.5" r="1.5" fill="#E2F5F5"/>
<circle cx="81.5" cy="1.5" r="1.5" fill="#E2F5F5"/>
<circle cx="81.5" cy="101.5" r="1.5" fill="#E2F5F5"/>
<circle cx="31.5" cy="11.5" r="1.5" fill="#E2F5F5"/>
<circle cx="31.5" cy="111.5" r="1.5" fill="#E2F5F5"/>
<circle cx="81.5" cy="11.5" r="1.5" fill="#E2F5F5"/>
<circle cx="81.5" cy="111.5" r="1.5" fill="#E2F5F5"/>
<circle cx="41.5" cy="21.5" r="1.5" fill="#E2F5F5"/>
<circle cx="91.5" cy="21.5" r="1.5" fill="#E2F5F5"/>
<circle cx="41.5" cy="31.5" r="1.5" fill="#E2F5F5"/>
<circle cx="91.5" cy="31.5" r="1.5" fill="#E2F5F5"/>
<circle cx="41.5" cy="41.5" r="1.5" fill="#E2F5F5"/>
<circle cx="91.5" cy="41.5" r="1.5" fill="#E2F5F5"/>
<circle cx="41.5" cy="51.5" r="1.5" fill="#E2F5F5"/>
<circle cx="91.5" cy="51.5" r="1.5" fill="#E2F5F5"/>
<circle cx="41.5" cy="61.5" r="1.5" fill="#E2F5F5"/>
<circle cx="91.5" cy="61.5" r="1.5" fill="#E2F5F5"/>
<circle cx="41.5" cy="71.5" r="1.5" fill="#E2F5F5"/>
<circle cx="91.5" cy="71.5" r="1.5" fill="#E2F5F5"/>
<circle cx="41.5" cy="81.5" r="1.5" fill="#E2F5F5"/>
<circle cx="91.5" cy="81.5" r="1.5" fill="#E2F5F5"/>
<circle cx="41.5" cy="91.5" r="1.5" fill="#E2F5F5"/>
<circle cx="91.5" cy="91.5" r="1.5" fill="#E2F5F5"/>
<circle cx="41.5" cy="1.5" r="1.5" fill="#E2F5F5"/>
<circle cx="41.5" cy="101.5" r="1.5" fill="#E2F5F5"/>
<circle cx="91.5" cy="1.5" r="1.5" fill="#E2F5F5"/>
<circle cx="91.5" cy="101.5" r="1.5" fill="#E2F5F5"/>
<circle cx="41.5" cy="11.5" r="1.5" fill="#E2F5F5"/>
<circle cx="41.5" cy="111.5" r="1.5" fill="#E2F5F5"/>
<circle cx="91.5" cy="11.5" r="1.5" fill="#E2F5F5"/>
<circle cx="91.5" cy="111.5" r="1.5" fill="#E2F5F5"/>
</mask>
<g mask="url(#mask0_765_549)">
<rect width="93" height="113" fill="url(#paint0_linear_765_549)"/>
</g>
<defs>
<linearGradient id="paint0_linear_765_549" x1="93" y1="113" x2="3.24813e-06" y2="-2.67324e-06" gradientUnits="userSpaceOnUse">
<stop stop-color="#D2F0E0"/>
<stop offset="0.994792" stop-color="#E2F5F5"/>
</linearGradient>
</defs>
</svg>
