<svg width="111" height="231" viewBox="0 0 111 231" fill="none" xmlns="http://www.w3.org/2000/svg">
<circle cx="1.79032" cy="2.11295" r="1.79032" fill="#D2F0EF"/>
<circle cx="1.79032" cy="121.468" r="1.79032" fill="#D2F0EF"/>
<circle cx="61.4676" cy="2.11295" r="1.79032" fill="#D2F0EF"/>
<circle cx="61.4676" cy="121.468" r="1.79032" fill="#D2F0EF"/>
<circle cx="1.79032" cy="14.0484" r="1.79032" fill="#D2F0EF"/>
<circle cx="1.79032" cy="133.403" r="1.79032" fill="#D2F0EF"/>
<circle cx="61.4676" cy="14.0484" r="1.79032" fill="#D2F0EF"/>
<circle cx="61.4676" cy="133.403" r="1.79032" fill="#D2F0EF"/>
<circle cx="1.79032" cy="25.9839" r="1.79032" fill="#D2F0EF"/>
<circle cx="1.79032" cy="145.339" r="1.79032" fill="#D2F0EF"/>
<circle cx="61.4676" cy="25.9839" r="1.79032" fill="#D2F0EF"/>
<circle cx="61.4676" cy="145.339" r="1.79032" fill="#D2F0EF"/>
<circle cx="1.79032" cy="37.9193" r="1.79032" fill="#D2F0EF"/>
<circle cx="1.79032" cy="157.274" r="1.79032" fill="#D2F0EF"/>
<circle cx="61.4676" cy="37.9193" r="1.79032" fill="#D2F0EF"/>
<circle cx="61.4676" cy="157.274" r="1.79032" fill="#D2F0EF"/>
<circle cx="1.79032" cy="49.8549" r="1.79032" fill="#D2F0EF"/>
<circle cx="1.79032" cy="169.21" r="1.79032" fill="#D2F0EF"/>
<circle cx="61.4676" cy="49.8549" r="1.79032" fill="#D2F0EF"/>
<circle cx="61.4676" cy="169.21" r="1.79032" fill="#D2F0EF"/>
<circle cx="1.79032" cy="61.7903" r="1.79032" fill="#D2F0EF"/>
<circle cx="1.79032" cy="181.145" r="1.79032" fill="#D2F0EF"/>
<circle cx="61.4676" cy="61.7903" r="1.79032" fill="#D2F0EF"/>
<circle cx="61.4676" cy="181.145" r="1.79032" fill="#D2F0EF"/>
<circle cx="1.79032" cy="73.7259" r="1.79032" fill="#D2F0EF"/>
<circle cx="1.79032" cy="193.081" r="1.79032" fill="#D2F0EF"/>
<circle cx="61.4676" cy="73.7259" r="1.79032" fill="#D2F0EF"/>
<circle cx="61.4676" cy="193.081" r="1.79032" fill="#D2F0EF"/>
<circle cx="1.79032" cy="85.6613" r="1.79032" fill="#D2F0EF"/>
<circle cx="1.79032" cy="205.016" r="1.79032" fill="#D2F0EF"/>
<circle cx="61.4676" cy="85.6613" r="1.79032" fill="#D2F0EF"/>
<circle cx="61.4676" cy="205.016" r="1.79032" fill="#D2F0EF"/>
<circle cx="1.79032" cy="97.5968" r="1.79032" fill="#D2F0EF"/>
<circle cx="1.79032" cy="216.952" r="1.79032" fill="#D2F0EF"/>
<circle cx="61.4676" cy="97.5968" r="1.79032" fill="#D2F0EF"/>
<circle cx="61.4676" cy="216.952" r="1.79032" fill="#D2F0EF"/>
<circle cx="1.79032" cy="109.532" r="1.79032" fill="#D2F0EF"/>
<circle cx="1.79032" cy="228.887" r="1.79032" fill="#D2F0EF"/>
<circle cx="61.4676" cy="109.532" r="1.79032" fill="#D2F0EF"/>
<circle cx="61.4676" cy="228.887" r="1.79032" fill="#D2F0EF"/>
<circle cx="13.7259" cy="2.11295" r="1.79032" fill="#D2F0EF"/>
<circle cx="13.7259" cy="121.468" r="1.79032" fill="#D2F0EF"/>
<circle cx="73.4031" cy="2.11295" r="1.79032" fill="#D2F0EF"/>
<circle cx="73.4031" cy="121.468" r="1.79032" fill="#D2F0EF"/>
<circle cx="13.7259" cy="14.0484" r="1.79032" fill="#D2F0EF"/>
<circle cx="13.7259" cy="133.403" r="1.79032" fill="#D2F0EF"/>
<circle cx="73.4031" cy="14.0484" r="1.79032" fill="#D2F0EF"/>
<circle cx="73.4031" cy="133.403" r="1.79032" fill="#D2F0EF"/>
<circle cx="13.7259" cy="25.9839" r="1.79032" fill="#D2F0EF"/>
<circle cx="13.7259" cy="145.339" r="1.79032" fill="#D2F0EF"/>
<circle cx="73.4031" cy="25.9839" r="1.79032" fill="#D2F0EF"/>
<circle cx="73.4031" cy="145.339" r="1.79032" fill="#D2F0EF"/>
<circle cx="13.7259" cy="37.9193" r="1.79032" fill="#D2F0EF"/>
<circle cx="13.7259" cy="157.274" r="1.79032" fill="#D2F0EF"/>
<circle cx="73.4031" cy="37.9193" r="1.79032" fill="#D2F0EF"/>
<circle cx="73.4031" cy="157.274" r="1.79032" fill="#D2F0EF"/>
<circle cx="13.7259" cy="49.8549" r="1.79032" fill="#D2F0EF"/>
<circle cx="13.7259" cy="169.21" r="1.79032" fill="#D2F0EF"/>
<circle cx="73.4031" cy="49.8549" r="1.79032" fill="#D2F0EF"/>
<circle cx="73.4031" cy="169.21" r="1.79032" fill="#D2F0EF"/>
<circle cx="13.7259" cy="61.7903" r="1.79032" fill="#D2F0EF"/>
<circle cx="13.7259" cy="181.145" r="1.79032" fill="#D2F0EF"/>
<circle cx="73.4031" cy="61.7903" r="1.79032" fill="#D2F0EF"/>
<circle cx="73.4031" cy="181.145" r="1.79032" fill="#D2F0EF"/>
<circle cx="13.7259" cy="73.7259" r="1.79032" fill="#D2F0EF"/>
<circle cx="13.7259" cy="193.081" r="1.79032" fill="#D2F0EF"/>
<circle cx="73.4031" cy="73.7259" r="1.79032" fill="#D2F0EF"/>
<circle cx="73.4031" cy="193.081" r="1.79032" fill="#D2F0EF"/>
<circle cx="13.7259" cy="85.6613" r="1.79032" fill="#D2F0EF"/>
<circle cx="13.7259" cy="205.016" r="1.79032" fill="#D2F0EF"/>
<circle cx="73.4031" cy="85.6613" r="1.79032" fill="#D2F0EF"/>
<circle cx="73.4031" cy="205.016" r="1.79032" fill="#D2F0EF"/>
<circle cx="13.7259" cy="97.5968" r="1.79032" fill="#D2F0EF"/>
<circle cx="13.7259" cy="216.952" r="1.79032" fill="#D2F0EF"/>
<circle cx="73.4031" cy="97.5968" r="1.79032" fill="#D2F0EF"/>
<circle cx="73.4031" cy="216.952" r="1.79032" fill="#D2F0EF"/>
<circle cx="13.7259" cy="109.532" r="1.79032" fill="#D2F0EF"/>
<circle cx="13.7259" cy="228.887" r="1.79032" fill="#D2F0EF"/>
<circle cx="73.4031" cy="109.532" r="1.79032" fill="#D2F0EF"/>
<circle cx="73.4031" cy="228.887" r="1.79032" fill="#D2F0EF"/>
<circle cx="25.6614" cy="2.11295" r="1.79032" fill="#D2F0EF"/>
<circle cx="25.6614" cy="121.468" r="1.79032" fill="#D2F0EF"/>
<circle cx="85.3387" cy="2.11295" r="1.79032" fill="#D2F0EF"/>
<circle cx="85.3387" cy="121.468" r="1.79032" fill="#D2F0EF"/>
<circle cx="25.6614" cy="14.0484" r="1.79032" fill="#D2F0EF"/>
<circle cx="25.6614" cy="133.403" r="1.79032" fill="#D2F0EF"/>
<circle cx="85.3387" cy="14.0484" r="1.79032" fill="#D2F0EF"/>
<circle cx="85.3387" cy="133.403" r="1.79032" fill="#D2F0EF"/>
<circle cx="25.6614" cy="25.9839" r="1.79032" fill="#D2F0EF"/>
<circle cx="25.6614" cy="145.339" r="1.79032" fill="#D2F0EF"/>
<circle cx="85.3387" cy="25.9839" r="1.79032" fill="#D2F0EF"/>
<circle cx="85.3387" cy="145.339" r="1.79032" fill="#D2F0EF"/>
<circle cx="25.6614" cy="37.9193" r="1.79032" fill="#D2F0EF"/>
<circle cx="25.6614" cy="157.274" r="1.79032" fill="#D2F0EF"/>
<circle cx="85.3387" cy="37.9193" r="1.79032" fill="#D2F0EF"/>
<circle cx="85.3387" cy="157.274" r="1.79032" fill="#D2F0EF"/>
<circle cx="25.6614" cy="49.8549" r="1.79032" fill="#D2F0EF"/>
<circle cx="25.6614" cy="169.21" r="1.79032" fill="#D2F0EF"/>
<circle cx="85.3387" cy="49.8549" r="1.79032" fill="#D2F0EF"/>
<circle cx="85.3387" cy="169.21" r="1.79032" fill="#D2F0EF"/>
<circle cx="25.6614" cy="61.7903" r="1.79032" fill="#D2F0EF"/>
<circle cx="25.6614" cy="181.145" r="1.79032" fill="#D2F0EF"/>
<circle cx="85.3387" cy="61.7903" r="1.79032" fill="#D2F0EF"/>
<circle cx="85.3387" cy="181.145" r="1.79032" fill="#D2F0EF"/>
<circle cx="25.6614" cy="73.7259" r="1.79032" fill="#D2F0EF"/>
<circle cx="25.6614" cy="193.081" r="1.79032" fill="#D2F0EF"/>
<circle cx="85.3387" cy="73.7259" r="1.79032" fill="#D2F0EF"/>
<circle cx="85.3387" cy="193.081" r="1.79032" fill="#D2F0EF"/>
<circle cx="25.6614" cy="85.6613" r="1.79032" fill="#D2F0EF"/>
<circle cx="25.6614" cy="205.016" r="1.79032" fill="#D2F0EF"/>
<circle cx="85.3387" cy="85.6613" r="1.79032" fill="#D2F0EF"/>
<circle cx="85.3387" cy="205.016" r="1.79032" fill="#D2F0EF"/>
<circle cx="25.6614" cy="97.5968" r="1.79032" fill="#D2F0EF"/>
<circle cx="25.6614" cy="216.952" r="1.79032" fill="#D2F0EF"/>
<circle cx="85.3387" cy="97.5968" r="1.79032" fill="#D2F0EF"/>
<circle cx="85.3387" cy="216.952" r="1.79032" fill="#D2F0EF"/>
<circle cx="25.6614" cy="109.532" r="1.79032" fill="#D2F0EF"/>
<circle cx="25.6614" cy="228.887" r="1.79032" fill="#D2F0EF"/>
<circle cx="85.3387" cy="109.532" r="1.79032" fill="#D2F0EF"/>
<circle cx="85.3387" cy="228.887" r="1.79032" fill="#D2F0EF"/>
<circle cx="37.597" cy="2.11295" r="1.79032" fill="#D2F0EF"/>
<circle cx="37.597" cy="121.468" r="1.79032" fill="#D2F0EF"/>
<circle cx="97.2742" cy="2.11295" r="1.79032" fill="#D2F0EF"/>
<circle cx="97.2742" cy="121.468" r="1.79032" fill="#D2F0EF"/>
<circle cx="37.597" cy="14.0484" r="1.79032" fill="#D2F0EF"/>
<circle cx="37.597" cy="133.403" r="1.79032" fill="#D2F0EF"/>
<circle cx="97.2742" cy="14.0484" r="1.79032" fill="#D2F0EF"/>
<circle cx="97.2742" cy="133.403" r="1.79032" fill="#D2F0EF"/>
<circle cx="37.597" cy="25.9839" r="1.79032" fill="#D2F0EF"/>
<circle cx="37.597" cy="145.339" r="1.79032" fill="#D2F0EF"/>
<circle cx="97.2742" cy="25.9839" r="1.79032" fill="#D2F0EF"/>
<circle cx="97.2742" cy="145.339" r="1.79032" fill="#D2F0EF"/>
<circle cx="37.597" cy="37.9193" r="1.79032" fill="#D2F0EF"/>
<circle cx="37.597" cy="157.274" r="1.79032" fill="#D2F0EF"/>
<circle cx="97.2742" cy="37.9193" r="1.79032" fill="#D2F0EF"/>
<circle cx="97.2742" cy="157.274" r="1.79032" fill="#D2F0EF"/>
<circle cx="37.597" cy="49.8549" r="1.79032" fill="#D2F0EF"/>
<circle cx="37.597" cy="169.21" r="1.79032" fill="#D2F0EF"/>
<circle cx="97.2742" cy="49.8549" r="1.79032" fill="#D2F0EF"/>
<circle cx="97.2742" cy="169.21" r="1.79032" fill="#D2F0EF"/>
<circle cx="37.597" cy="61.7903" r="1.79032" fill="#D2F0EF"/>
<circle cx="37.597" cy="181.145" r="1.79032" fill="#D2F0EF"/>
<circle cx="97.2742" cy="61.7903" r="1.79032" fill="#D2F0EF"/>
<circle cx="97.2742" cy="181.145" r="1.79032" fill="#D2F0EF"/>
<circle cx="37.597" cy="73.7259" r="1.79032" fill="#D2F0EF"/>
<circle cx="37.597" cy="193.081" r="1.79032" fill="#D2F0EF"/>
<circle cx="97.2742" cy="73.7259" r="1.79032" fill="#D2F0EF"/>
<circle cx="97.2742" cy="193.081" r="1.79032" fill="#D2F0EF"/>
<circle cx="37.597" cy="85.6613" r="1.79032" fill="#D2F0EF"/>
<circle cx="37.597" cy="205.016" r="1.79032" fill="#D2F0EF"/>
<circle cx="97.2742" cy="85.6613" r="1.79032" fill="#D2F0EF"/>
<circle cx="97.2742" cy="205.016" r="1.79032" fill="#D2F0EF"/>
<circle cx="37.597" cy="97.5968" r="1.79032" fill="#D2F0EF"/>
<circle cx="37.597" cy="216.952" r="1.79032" fill="#D2F0EF"/>
<circle cx="97.2742" cy="97.5968" r="1.79032" fill="#D2F0EF"/>
<circle cx="97.2742" cy="216.952" r="1.79032" fill="#D2F0EF"/>
<circle cx="37.597" cy="109.532" r="1.79032" fill="#D2F0EF"/>
<circle cx="37.597" cy="228.887" r="1.79032" fill="#D2F0EF"/>
<circle cx="97.2742" cy="109.532" r="1.79032" fill="#D2F0EF"/>
<circle cx="97.2742" cy="228.887" r="1.79032" fill="#D2F0EF"/>
<circle cx="49.532" cy="2.11295" r="1.79032" fill="#D2F0EF"/>
<circle cx="49.532" cy="121.468" r="1.79032" fill="#D2F0EF"/>
<circle cx="109.21" cy="2.11295" r="1.79032" fill="#D2F0EF"/>
<circle cx="109.21" cy="121.468" r="1.79032" fill="#D2F0EF"/>
<circle cx="49.532" cy="14.0484" r="1.79032" fill="#D2F0EF"/>
<circle cx="49.532" cy="133.403" r="1.79032" fill="#D2F0EF"/>
<circle cx="109.21" cy="14.0484" r="1.79032" fill="#D2F0EF"/>
<circle cx="109.21" cy="133.403" r="1.79032" fill="#D2F0EF"/>
<circle cx="49.532" cy="25.9839" r="1.79032" fill="#D2F0EF"/>
<circle cx="49.532" cy="145.339" r="1.79032" fill="#D2F0EF"/>
<circle cx="109.21" cy="25.9839" r="1.79032" fill="#D2F0EF"/>
<circle cx="109.21" cy="145.339" r="1.79032" fill="#D2F0EF"/>
<circle cx="49.532" cy="37.9193" r="1.79032" fill="#D2F0EF"/>
<circle cx="49.532" cy="157.274" r="1.79032" fill="#D2F0EF"/>
<circle cx="109.21" cy="37.9193" r="1.79032" fill="#D2F0EF"/>
<circle cx="109.21" cy="157.274" r="1.79032" fill="#D2F0EF"/>
<circle cx="49.532" cy="49.8549" r="1.79032" fill="#D2F0EF"/>
<circle cx="49.532" cy="169.21" r="1.79032" fill="#D2F0EF"/>
<circle cx="109.21" cy="49.8549" r="1.79032" fill="#D2F0EF"/>
<circle cx="109.21" cy="169.21" r="1.79032" fill="#D2F0EF"/>
<circle cx="49.532" cy="61.7903" r="1.79032" fill="#D2F0EF"/>
<circle cx="49.532" cy="181.145" r="1.79032" fill="#D2F0EF"/>
<circle cx="109.21" cy="61.7903" r="1.79032" fill="#D2F0EF"/>
<circle cx="109.21" cy="181.145" r="1.79032" fill="#D2F0EF"/>
<circle cx="49.532" cy="73.7259" r="1.79032" fill="#D2F0EF"/>
<circle cx="49.532" cy="193.081" r="1.79032" fill="#D2F0EF"/>
<circle cx="109.21" cy="73.7259" r="1.79032" fill="#D2F0EF"/>
<circle cx="109.21" cy="193.081" r="1.79032" fill="#D2F0EF"/>
<circle cx="49.532" cy="85.6613" r="1.79032" fill="#D2F0EF"/>
<circle cx="49.532" cy="205.016" r="1.79032" fill="#D2F0EF"/>
<circle cx="109.21" cy="85.6613" r="1.79032" fill="#D2F0EF"/>
<circle cx="109.21" cy="205.016" r="1.79032" fill="#D2F0EF"/>
<circle cx="49.532" cy="97.5968" r="1.79032" fill="#D2F0EF"/>
<circle cx="49.532" cy="216.952" r="1.79032" fill="#D2F0EF"/>
<circle cx="109.21" cy="97.5968" r="1.79032" fill="#D2F0EF"/>
<circle cx="109.21" cy="216.952" r="1.79032" fill="#D2F0EF"/>
<circle cx="49.532" cy="109.532" r="1.79032" fill="#D2F0EF"/>
<circle cx="49.532" cy="228.887" r="1.79032" fill="#D2F0EF"/>
<circle cx="109.21" cy="109.532" r="1.79032" fill="#D2F0EF"/>
<circle cx="109.21" cy="228.887" r="1.79032" fill="#D2F0EF"/>
</svg>
