<svg width="360" height="35" viewBox="0 0 360 35" fill="none" xmlns="http://www.w3.org/2000/svg">
<path d="M2.53935 22.784C4.45533 22.2459 8.86583 21.5591 14.937 20.8939C20.9941 20.2303 28.6679 19.5918 37.0849 19.1432C53.9247 18.2459 73.7109 18.1106 89.4669 20.0477C95.4619 20.7847 101.194 21.8637 107.057 22.9674C108.901 23.3145 110.758 23.6641 112.64 24.0062C120.5 25.4348 128.775 26.7287 138.302 27.1508C157.365 27.9952 181.396 25.3477 217.162 13.374C273.892 -5.61816 335.603 0.517584 359.5 5.97692V34.5L2.53935 22.784ZM2.53935 22.784C2.53982 22.7839 2.54029 22.7837 2.54076 22.7836L2.40317 22.3029L2.5384 22.7843C2.53872 22.7842 2.53903 22.7841 2.53935 22.784ZM0.500015 23.4866C0.476207 23.497 0.45396 23.5069 0.433363 23.5163C0.367774 23.5464 0.332888 23.5652 0.320291 23.5729L0.500015 23.4866ZM0.500015 23.4866L0.500015 23.2017M0.500015 23.4866L0.354669 23.5451C0.367237 23.5334 0.397043 23.5044 0.426186 23.4583C0.451283 23.4185 0.499965 23.328 0.500015 23.2017M0.500015 23.2017L0.500015 23.1886L0.499324 23.1754C0.499794 23.1844 0.500019 23.1931 0.500015 23.2017ZM1.72012e-05 34.5L1.72233e-05 35H0.500017L0.500017 34.5H1.72012e-05ZM360 34.5V35H359.5L360 34.5ZM0.318081 23.5744C0.318041 23.5744 0.318716 23.5739 0.320206 23.573C0.318861 23.5739 0.318121 23.5744 0.318081 23.5744Z" fill="#F6FCF9" stroke="#F6FCF9"/>
</svg>
